<?xml version="1.0" encoding="iso-8859-1"?>
<!-- Uploaded to: SVG Repo, www.svgrepo.com, Generator: SVG Repo Mixer Tools -->
<svg height="800px" width="800px" version="1.1" id="Layer_1" xmlns="http://www.w3.org/2000/svg" xmlns:xlink="http://www.w3.org/1999/xlink" 
	 viewBox="0 0 512 512" xml:space="preserve">
<path style="fill:#D35B38;" d="M380.567,173.882l-42.961-42.961L449.431,19.097c11.864-11.864,31.097-11.864,42.961,0l0,0
	c11.864,11.864,11.864,31.097,0,42.961L380.567,173.882z"/>
<circle style="fill:#808080;" cx="221.802" cy="290.728" r="211.073"/>
<g>
	<path style="fill:#4D3D36;" d="M499.605,11.884C491.94,4.22,481.75,0,470.912,0c-10.838,0-21.028,4.22-28.669,11.863
		l-96.261,95.665c-36.35-24.75-79.239-38.07-124.179-38.07c-59.103,0-114.67,23.016-156.462,64.809s-64.81,97.359-64.81,156.462
		s23.016,114.67,64.809,156.462S162.698,512,221.802,512s114.671-23.016,156.463-64.809s64.809-97.359,64.809-156.462
		c0-45.742-13.796-89.359-39.404-126.119l95.935-95.341C515.424,53.448,515.424,27.706,499.605,11.884z M221.802,491.602
		c-110.762,0-200.873-90.111-200.873-200.872S111.04,89.857,221.802,89.857s200.873,90.111,200.873,200.872
		S332.564,491.602,221.802,491.602z M485.203,54.824l-94.06,93.478c-4.075-4.827-8.359-9.517-12.878-14.035
		c-5.069-5.069-10.344-9.855-15.8-14.364l94.178-93.594c7.868-7.867,20.67-7.87,28.536-0.001
		C493.047,34.177,493.048,46.979,485.203,54.824z"/>
	<path style="fill:#4D3D36;" d="M463.625,33.439l-3.405,3.403c-3.983,3.983-3.984,10.44-0.002,14.425
		c1.992,1.992,4.603,2.988,7.213,2.988s5.219-0.995,7.211-2.986l3.405-3.403c3.983-3.983,3.984-10.44,0.002-14.425
		C474.067,29.459,467.611,29.457,463.625,33.439z"/>
	<path style="fill:#4D3D36;" d="M384.261,308.733c0.164,0.007,0.327,0.011,0.49,0.011c5.412,0,9.922-4.255,10.18-9.717
		c0.13-2.744,0.195-5.536,0.195-8.298c0-5.632-4.567-10.199-10.199-10.199c-5.632,0-10.199,4.567-10.199,10.199
		c0,2.442-0.058,4.909-0.173,7.333C374.289,303.689,378.634,308.466,384.261,308.733z"/>
	<path style="fill:#4D3D36;" d="M221.802,443.654c-5.632,0-10.199,4.567-10.199,10.199c0,5.632,4.567,10.199,10.199,10.199
		c37.318,0,72.87-11.678,102.813-33.773c29.341-21.651,50.788-51.333,62.024-85.838c1.744-5.357-1.184-11.113-6.54-12.856
		c-5.359-1.745-11.113,1.183-12.856,6.54C346.69,401.246,288.24,443.654,221.802,443.654z"/>
	<path style="fill:#4D3D36;" d="M59.343,272.725c-5.637-0.23-10.404,4.08-10.67,9.707c-0.13,2.744-0.195,5.536-0.195,8.298
		c0,5.632,4.567,10.199,10.199,10.199s10.199-4.567,10.199-10.199c0-2.442,0.058-4.909,0.173-7.333
		C69.316,277.769,64.97,272.992,59.343,272.725z"/>
	<path style="fill:#4D3D36;" d="M232.002,127.604c0-5.632-4.567-10.199-10.199-10.199c-37.318,0-72.869,11.678-102.812,33.773
		c-29.341,21.651-50.789,51.333-62.025,85.838c-1.744,5.357,1.184,11.113,6.54,12.856c1.049,0.342,2.113,0.504,3.161,0.504
		c4.297,0,8.294-2.737,9.696-7.044c20.554-63.121,79.004-105.529,145.442-105.529C227.434,137.803,232.002,133.237,232.002,127.604z
		"/>
</g>
</svg>