<?xml version="1.0" encoding="iso-8859-1"?>
<!-- Uploaded to: SVG Repo, www.svgrepo.com, Generator: SVG Repo Mixer Tools -->
<!DOCTYPE svg PUBLIC "-//W3C//DTD SVG 1.1//EN" "http://www.w3.org/Graphics/SVG/1.1/DTD/svg11.dtd">
<svg fill="#000000" version="1.1" id="Capa_1" xmlns="http://www.w3.org/2000/svg" xmlns:xlink="http://www.w3.org/1999/xlink" 
	 width="800px" height="800px" viewBox="0 0 380.717 380.717"
	 xml:space="preserve">
<g>
	<path d="M159.729,148.51l-11.375-17.527c3.724-4.874,4.223-11.729,0.714-17.167L79.647,6.814c-4.497-6.925-13.75-8.9-20.675-4.403
		L48.004,9.533c-6.925,4.491-8.912,13.745-4.415,20.681l69.398,106.997c3.532,5.426,9.992,7.755,15.964,6.35l11.363,17.515
		c-49.438,38.894-61.95,109.756-27.054,163.55c36.977,57.002,113.178,73.244,170.179,36.262
		c57.013-36.971,73.244-113.166,36.273-170.178C284.879,137.054,215.331,119.527,159.729,148.51z M60.86,15.558
		c5.025-3.259,11.735-1.836,14.982,3.178c3.247,5.019,1.818,11.717-3.201,14.977c-4.996,3.247-11.706,1.818-14.953-3.201
		C54.423,25.515,55.852,18.805,60.86,15.558z"/>
</g>
</svg>